<svg width="24" height="24" viewBox="0 0 24 24" fill="none" xmlns="http://www.w3.org/2000/svg">
<path fill-rule="evenodd" clip-rule="evenodd" d="M1.98688e-06 12C1.98688e-06 5.3724 5.3724 0 12 0C18.6276 0 24 5.3724 24 12C24 18.6276 18.6276 24 12 24C10.2319 24.001 8.48551 23.6113 6.8856 22.8588L1.4412 23.9748C1.24681 24.0145 1.0456 24.0054 0.85558 23.9483C0.665561 23.8913 0.492664 23.7879 0.352366 23.6476C0.212068 23.5073 0.108747 23.3344 0.0516517 23.1444C-0.00544351 22.9544 -0.0145313 22.7532 0.0252019 22.5588L1.1412 17.1144C0.388675 15.5145 -0.00101537 13.7681 1.98688e-06 12ZM6.6 10.2C6.12261 10.2 5.66477 10.3896 5.32721 10.7272C4.98964 11.0648 4.8 11.5226 4.8 12V12.012C4.8 12.4894 4.98964 12.9472 5.32721 13.2848C5.66477 13.6224 6.12261 13.812 6.6 13.812H6.612C7.08939 13.812 7.54723 13.6224 7.88479 13.2848C8.22236 12.9472 8.412 12.4894 8.412 12.012V12C8.412 11.5226 8.22236 11.0648 7.88479 10.7272C7.54723 10.3896 7.08939 10.2 6.612 10.2H6.6ZM12 10.2C11.5226 10.2 11.0648 10.3896 10.7272 10.7272C10.3896 11.0648 10.2 11.5226 10.2 12V12.012C10.2 12.4894 10.3896 12.9472 10.7272 13.2848C11.0648 13.6224 11.5226 13.812 12 13.812H12.012C12.4894 13.812 12.9472 13.6224 13.2848 13.2848C13.6224 12.9472 13.812 12.4894 13.812 12.012V12C13.812 11.5226 13.6224 11.0648 13.2848 10.7272C12.9472 10.3896 12.4894 10.2 12.012 10.2H12ZM15.6 12C15.6 11.5226 15.7896 11.0648 16.1272 10.7272C16.4648 10.3896 16.9226 10.2 17.4 10.2H17.412C17.8894 10.2 18.3472 10.3896 18.6848 10.7272C19.0224 11.0648 19.212 11.5226 19.212 12V12.012C19.212 12.4894 19.0224 12.9472 18.6848 13.2848C18.3472 13.6224 17.8894 13.812 17.412 13.812H17.4C16.9226 13.812 16.4648 13.6224 16.1272 13.2848C15.7896 12.9472 15.6 12.4894 15.6 12.012V12Z" fill="black"/>
</svg>
