<svg width="497" height="328" viewBox="0 0 497 328" fill="none" xmlns="http://www.w3.org/2000/svg">
<path d="M395.334 197.235L394.367 206.462C391.852 212.472 389.339 218.478 386.827 224.48C385.95 226.588 385.069 228.692 384.185 230.792C383.783 231.775 383.214 232.68 382.503 233.467C382.467 233.52 382.421 233.564 382.366 233.597C382.311 233.629 382.249 233.648 382.186 233.653C381.973 233.653 381.897 233.369 381.88 233.156C381.759 230.88 381.488 228.615 381.067 226.375C378.714 215.558 366.156 211.594 356.306 211.84C352.365 211.9 348.482 212.8 344.916 214.477C339.773 216.967 337.769 223.89 337.496 224.147L337.278 225.037L333.751 239.73C333.008 243.006 332.44 244.737 329.415 245.61C329.317 245.643 326.303 247.248 326.205 247.248C325.036 247.576 328.236 246.872 326.969 246.659L322.956 246.031L321.247 245.638L296.311 239.735C297.278 239.899 298.266 240.079 299.271 240.281L305.058 241.663L303.529 234.324C299.549 211.48 306.145 190.754 317.381 179.501C320.341 176.541 321.809 175.782 325.26 173.811L327.199 178.403C327.199 178.403 347.029 184.316 351.703 166.173C353.592 166.337 357.223 166.309 359.096 166.719C368.858 168.766 377.675 173.969 384.185 181.526C384.758 182.181 385.32 182.858 385.877 183.546L386.172 183.907C386.516 184.338 386.882 184.78 387.226 185.223L387.471 185.572C390.325 189.297 392.951 193.192 395.334 197.235Z" fill="#D5AB86"/>
<path d="M159.702 101.731C162.847 86.0057 176.202 70.7724 214.346 67.2834C299.128 59.5357 253.297 36.1614 280.903 10.5813C308.509 -14.9988 412.888 27.0869 385.582 92.8144C358.277 158.542 448.416 85.5908 486.592 168.845C492.123 180.926 494.785 194.122 494.373 207.403C493.891 221.436 490.278 235.183 483.797 247.638C471.604 271.455 448.956 292.672 416.202 305.82C411.368 307.789 406.308 309.56 401.023 311.132" stroke="#693100" stroke-width="4.52" stroke-miterlimit="10"/>
<path d="M428.269 231.056C427.608 238.771 422.377 240.027 422.377 240.027C417.955 242.642 411.162 239.83 409.792 234.927C409.772 234.875 409.761 234.82 409.759 234.763C408.667 230.565 406.538 225.17 403.677 219.268C398.162 205.924 390.993 192.47 381.799 181.829C375.288 174.272 366.472 169.069 356.71 167.021C356.677 167.021 356.661 166.988 356.628 166.988C343.682 163.09 337.381 155.129 334.651 147.496C334.651 147.496 334.651 147.496 334.651 147.463C333.483 142.642 332.293 137.941 332.932 135.097C334.024 130.112 334.57 124.723 333.21 123.631C331.501 122.2 328.411 123.259 320.548 124.843C313.74 126.24 310.109 125.449 309.29 121.288C309.16 120.643 309.094 119.986 309.093 119.328C309.06 119.743 307.455 118.094 307.379 118.487C306.865 120.611 305.839 121.463 303.6 122.397C300.275 123.778 298.916 129.112 298.424 132.667C297.911 136.451 299.615 141.67 300.963 145.225C299.238 143.254 297.261 143.483 294.171 144.679C293.396 144.974 291.441 144.892 289.896 144.351C290.114 144.164 290.371 144.028 290.649 143.953C291.146 143.789 287.542 141.998 288.067 141.883C293.314 140.699 296.257 136.325 295.634 132.476C294.089 122.784 296.147 111.384 302.694 103.833C309.912 95.528 321.689 93.8026 331.659 97.6028C339.489 100.578 346.893 106.683 349.606 114.824C349.606 114.856 349.606 114.889 349.639 114.922C349.984 115.957 350.249 117.018 350.431 118.094C351.43 124.149 349.295 130.286 348.11 136.27C347.684 138.427 348.765 140.78 348.995 142.489C350.311 152.754 362.159 155.654 371.534 160.011C391.239 169.189 407.329 184.881 418.151 203.964C425.337 216.598 427.903 225.214 428.269 231.056Z" fill="#693100"/>
<path d="M324.386 171.776C324.173 171.89 323.961 172.005 323.764 172.136C320.225 174.164 316.972 176.654 314.089 179.54C302.858 190.793 296.262 211.519 300.242 234.364L301.771 241.664" stroke="black" stroke-width="4.52" stroke-miterlimit="10"/>
<path d="M423.759 325.059C423.761 308.005 422.287 290.983 419.352 274.183C417.389 262.784 414.687 251.526 411.261 240.478C409.202 233.768 406.685 226.528 403.693 219.261C400.914 212.46 397.705 205.843 394.083 199.452C390.572 193.193 386.463 187.289 381.815 181.822C375.304 174.265 366.488 169.061 356.726 167.014C354.854 166.617 352.959 166.333 351.053 166.162" stroke="black" stroke-width="4.52" stroke-miterlimit="10"/>
<path d="M221.946 176.641L221.668 176.592C218.333 176.034 214.912 176.321 211.717 177.427C208.523 178.534 205.657 180.424 203.382 182.926L184.709 203.27L182.525 205.672C182.389 205.819 182.261 205.975 182.143 206.136" stroke="black" stroke-width="4.52" stroke-miterlimit="10"/>
<path d="M194.979 211.448L205.227 200.08L205.244 200.063" stroke="black" stroke-width="4.52" stroke-miterlimit="10"/>
<path d="M296 272.334L344.206 289.32C348.849 290.955 353.789 291.573 358.692 291.129C363.594 290.685 368.343 289.191 372.616 286.748C376.89 284.305 380.587 280.97 383.456 276.971C386.326 272.971 388.3 268.401 389.246 263.57L400.652 205.345C401.235 202.355 401.208 199.278 400.572 196.299C399.936 193.32 398.704 190.5 396.95 188.009C396.46 187.308 395.928 186.637 395.356 186" stroke="black" stroke-width="4.52" stroke-miterlimit="10"/>
<path d="M252.227 267.817C246.09 271.961 241.58 284.547 239.183 292.808C238.773 294.193 237.924 295.408 236.764 296.27C235.604 297.133 234.197 297.596 232.751 297.591C231.773 297.591 230.806 297.378 229.918 296.968C228.554 296.329 227.446 295.249 226.773 293.903C226.1 292.557 225.899 291.022 226.205 289.548C230.218 269.925 244.381 231.186 293.035 239.726C294.007 239.889 294.995 240.07 295.995 240.272L301.771 241.664L317.971 245.611L322.339 246.665C323.996 247.067 325.732 247.005 327.357 246.485C327.457 246.465 327.556 246.438 327.652 246.403C329.148 245.89 330.49 245.008 331.554 243.837C332.619 242.667 333.37 241.247 333.74 239.709L337.425 224.378L337.638 223.488L342.465 203.444" stroke="black" stroke-width="4.52" stroke-miterlimit="10"/>
<path d="M228.498 204.988H211.987C210.104 204.988 208.299 204.24 206.968 202.909C205.637 201.578 204.889 199.772 204.889 197.89C204.889 196.007 205.637 194.202 206.968 192.871C208.299 191.54 210.104 190.792 211.987 190.792H235.378" stroke="black" stroke-width="4.52" stroke-miterlimit="10"/>
<path d="M215.825 204.984C215.59 207.877 214.488 210.018 212.86 211.497C208.667 215.319 200.985 214.882 195.64 212.267" stroke="black" stroke-width="4.52" stroke-miterlimit="10"/>
<path d="M184.731 203.263C179.997 197.541 180.963 189.782 184.638 183.787C195.061 166.773 218.878 170.038 234.324 177.109C246.838 182.82 257.802 191.403 268.476 199.965C273.69 204.147 278.812 208.504 283.764 213.069C284.673 213.892 285.757 214.498 286.934 214.841C288.111 215.184 289.351 215.255 290.56 215.051C291.769 214.846 292.915 214.369 293.913 213.657C294.911 212.945 295.735 212.016 296.322 210.939C299.052 205.9 302.006 200.402 302.563 198.878" stroke="black" stroke-width="4.52" stroke-miterlimit="10"/>
<path d="M212.866 211.497C212.866 211.497 237.496 224.858 255.792 244.055" stroke="black" stroke-width="4.52" stroke-miterlimit="10"/>
<path d="M246.216 275.063C243.486 279.726 245.834 286.573 250.993 288.211C257.583 290.337 264.55 291.035 271.43 290.258C278.938 289.385 283.928 283.188 287.215 276.09C287.453 275.562 287.577 274.989 287.579 274.41C287.581 273.831 287.462 273.257 287.228 272.728C286.994 272.198 286.651 271.723 286.222 271.334C285.793 270.945 285.286 270.651 284.736 270.471C283.743 270.144 282.663 270.204 281.711 270.638C280.76 271.072 280.007 271.849 279.604 272.814C278.512 275.336 276.824 278.492 274.586 279.912" stroke="black" stroke-width="4.52" stroke-miterlimit="10"/>
<path d="M259.074 274.189C259.074 274.189 252.331 281.44 257.649 289.117C257.883 289.439 258.158 289.729 258.468 289.979" stroke="black" stroke-width="4.52" stroke-miterlimit="10"/>
<path d="M267.968 275.386C267.968 275.386 261.733 289.418 269.732 290.445" stroke="black" stroke-width="4.52" stroke-miterlimit="10"/>
<path d="M489.344 325.072H103.191" stroke="black" stroke-width="4.52" stroke-miterlimit="10"/>
<path d="M255.105 298.627H216.595C216.204 302.263 214.482 305.625 211.76 308.067C209.039 310.508 205.51 311.856 201.853 311.852H72.4185C72.4256 315.353 73.8195 318.708 76.2951 321.183C78.7701 323.658 82.1252 325.052 85.6262 325.059H255.105C258.611 325.058 261.974 323.668 264.458 321.192C266.941 318.716 268.343 315.358 268.356 311.852V302.974C268.356 301.815 267.896 300.704 267.077 299.885C266.258 299.066 265.147 298.606 263.988 298.606L255.105 298.627Z" stroke="black" stroke-width="4.52" stroke-miterlimit="10"/>
<path d="M195.64 212.267C196.774 213.837 197.59 215.614 198.042 217.498L216.284 293.577C216.687 295.229 216.792 296.939 216.595 298.628C216.204 302.263 214.482 305.625 211.76 308.067C209.038 310.508 205.51 311.857 201.853 311.852H70.0159C66.6864 311.852 63.4536 310.729 60.8399 308.667C58.2256 306.605 56.3823 303.722 55.607 300.484L37.3979 224.41C36.8743 222.232 36.8519 219.964 37.3318 217.775C37.8118 215.587 38.7815 213.536 40.1688 211.777C41.5557 210.018 43.3236 208.596 45.3395 207.619C47.3553 206.642 49.5666 206.134 51.8068 206.136H183.633C185.799 206.131 187.939 206.605 189.9 207.523C191.861 208.442 193.595 209.782 194.979 211.448L195.64 212.267Z" stroke="black" stroke-width="4.52" stroke-miterlimit="10"/>
<path d="M174.99 117.586C174.149 116.598 173.265 115.648 172.342 114.725C167.164 109.53 161.011 105.408 154.236 102.596C147.46 99.7857 140.196 98.341 132.861 98.3453H63.748C56.4147 98.3421 49.1524 99.7846 42.3765 102.59C35.6007 105.395 29.4445 109.508 24.2591 114.694C19.0738 119.88 14.9614 126.037 12.1568 132.813C9.3522 139.589 7.91049 146.851 7.91409 154.185V154.583C7.90705 159.786 9.23225 164.905 11.7634 169.451C14.6078 172.347 18.0029 174.646 21.749 176.211C25.495 177.776 29.5163 178.576 33.5761 178.564H101.335C103.402 178.564 105.385 179.385 106.848 180.847C108.31 182.309 109.132 184.292 109.132 186.361C109.134 188.431 109.959 190.415 111.424 191.878C112.889 193.341 114.874 194.163 116.945 194.163H117.114L133.844 193.737C133.844 193.573 133.811 193.426 133.811 193.278C132.364 192.781 131.11 191.844 130.222 190.599C129.334 189.354 128.857 187.863 128.859 186.333V185.973C128.86 183.905 129.682 181.923 131.144 180.461C132.606 178.999 134.588 178.177 136.655 178.176H153.15C161.259 178.176 169.037 174.955 174.771 169.221C180.505 163.486 183.726 155.709 183.726 147.6C183.754 136.964 180.722 126.545 174.99 117.586ZM55.3069 149.937C52.6626 149.938 50.0773 149.154 47.8786 147.686C45.6793 146.218 43.9654 144.13 42.9531 141.687C41.9414 139.244 41.6765 136.556 42.1925 133.963C42.7085 131.369 43.9818 128.987 45.8524 127.117C47.7224 125.248 50.1051 123.976 52.6986 123.46C55.2921 122.945 57.9801 123.211 60.4229 124.225C62.8652 125.238 64.952 126.952 66.4196 129.152C67.8873 131.352 68.6697 133.937 68.6675 136.582C68.6631 140.123 67.2539 143.519 64.7494 146.022C62.2444 148.526 58.8482 149.934 55.3069 149.937ZM98.9159 149.937C96.2722 149.936 93.688 149.151 91.4903 147.681C89.2927 146.211 87.5804 144.123 86.5703 141.679C85.5597 139.236 85.2965 136.548 85.8135 133.955C86.3306 131.363 87.6055 128.982 89.4761 127.114C91.3467 125.245 93.7289 123.973 96.3224 123.46C98.9159 122.945 101.603 123.212 104.045 124.226C106.487 125.239 108.574 126.954 110.041 129.153C111.508 131.353 112.29 133.938 112.287 136.582C112.287 138.337 111.941 140.074 111.269 141.696C110.597 143.318 109.612 144.79 108.37 146.031C107.128 147.271 105.654 148.255 104.032 148.925C102.41 149.595 100.671 149.939 98.9159 149.937ZM140.45 149.937C137.806 149.935 135.223 149.148 133.026 147.678C130.829 146.208 129.118 144.119 128.108 141.675C127.099 139.233 126.836 136.545 127.354 133.952C127.872 131.36 129.147 128.979 131.017 127.112C132.889 125.244 135.271 123.973 137.864 123.459C140.457 122.946 143.145 123.212 145.586 124.226C148.028 125.24 150.114 126.955 151.58 129.154C153.047 131.353 153.829 133.938 153.827 136.582C153.827 138.337 153.481 140.076 152.808 141.697C152.136 143.319 151.15 144.792 149.908 146.033C148.665 147.273 147.191 148.256 145.568 148.926C143.945 149.596 142.206 149.94 140.45 149.937Z" fill="#EDBC91"/>
<path d="M183.726 147.605C183.726 155.715 180.505 163.492 174.771 169.226C169.036 174.96 161.259 178.181 153.15 178.181H136.666C134.6 178.183 132.618 179.004 131.157 180.465C129.695 181.925 128.872 183.906 128.869 185.973V186.333C128.868 187.863 129.345 189.354 130.233 190.599C131.121 191.844 132.375 192.781 133.822 193.278C134.583 193.543 135.385 193.676 136.191 193.671L133.854 193.737L117.114 194.163H116.934C114.865 194.163 112.88 193.342 111.415 191.88C109.95 190.418 109.125 188.435 109.121 186.366C109.121 184.298 108.299 182.315 106.837 180.852C105.374 179.39 103.391 178.569 101.324 178.569H33.576C25.4668 178.569 17.6896 175.348 11.9555 169.614C6.2214 163.88 3 156.102 3 147.993V147.595C3.00071 140.266 4.44493 133.009 7.25012 126.238C10.0553 119.468 14.1666 113.316 19.3493 108.135C24.5319 102.953 30.6844 98.8427 37.4553 96.039C44.2263 93.2353 51.4837 91.7922 58.8121 91.7933H127.903C142.706 91.7944 156.902 97.6748 167.371 108.141C177.839 118.607 183.722 132.802 183.726 147.605Z" stroke="black" stroke-width="4.52" stroke-miterlimit="10"/>
<path d="M356.71 166.997C356.677 166.997 356.66 166.964 356.628 166.964C343.682 163.066 337.381 155.105 334.651 147.472C334.651 147.472 334.651 147.472 334.651 147.439C332.516 141.488 332.566 135.728 333.335 132.288C333.796 130.466 334.089 128.606 334.209 126.73C334.389 121.417 330.491 122.717 319.341 124.939C314.22 125.976 310.944 124.032 309.306 121.27C309.146 121.029 309.008 120.775 308.891 120.511C308.127 118.903 307.81 117.118 307.974 115.346" stroke="black" stroke-width="4.52" stroke-miterlimit="10"/>
<path d="M301.558 145.945C301.362 145.666 301.16 145.399 300.963 145.186C299.238 143.215 297.261 143.444 294.171 144.64C293.396 144.934 291.441 144.853 289.896 144.312C288.596 143.848 287.624 143.045 288.067 141.844C288.18 141.597 288.349 141.379 288.56 141.208C288.771 141.037 289.019 140.916 289.284 140.856C289.799 140.726 290.32 140.622 290.846 140.545C296.147 139.36 294.963 133.223 294.318 129.373C292.757 119.687 294.832 108.287 301.444 100.736C308.727 92.4311 320.641 90.7002 330.704 94.5004C339.554 97.8419 347.881 105.093 349.606 114.784C349.606 114.817 349.606 114.85 349.639 114.883C349.672 114.915 349.639 114.964 349.639 114.997C350.66 121.052 349.639 127.615 348.454 133.605C347.744 137.154 348.012 140.053 349 142.45C352.096 150.296 362.541 153.032 370.96 156.914C390.884 166.092 407.116 181.784 418.058 200.867C426.696 216.002 428.743 225.311 428.268 231.055C427.608 238.77 422.377 240.026 422.377 240.026C417.955 242.641 411.157 239.829 409.792 234.926C409.772 234.874 409.761 234.818 409.759 234.762C408.667 230.564 406.538 225.169 403.677 219.267" stroke="black" stroke-width="4.52" stroke-miterlimit="10"/>
<path d="M307.952 115.346C307.952 118.267 306.576 121.15 303.584 122.378C300.221 123.765 298.856 127.418 298.364 130.972C297.677 136.177 298.797 141.46 301.536 145.938C304.075 150.153 308.209 154.8 314.062 154.8C324.785 154.8 329.382 149.629 329.382 149.629" stroke="black" stroke-width="4.52" stroke-miterlimit="10"/>
<path d="M319.085 132.65C320.092 132.65 320.909 131.833 320.909 130.826C320.909 129.819 320.092 129.002 319.085 129.002C318.077 129.002 317.261 129.819 317.261 130.826C317.261 131.833 318.077 132.65 319.085 132.65Z" fill="black"/>
<path d="M303.043 133.714C304.051 133.714 304.867 132.897 304.867 131.89C304.867 130.883 304.051 130.066 303.043 130.066C302.036 130.066 301.22 130.883 301.22 131.89C301.22 132.897 302.036 133.714 303.043 133.714Z" fill="black"/>
<path d="M310.911 129.111C310.911 129.111 309.999 136.313 310.365 137.301C310.731 138.289 313.013 137.159 313.013 137.159" stroke="black" stroke-width="4.52" stroke-miterlimit="10"/>
<path d="M314.291 143.459C318.195 144.895 322.224 143.066 323.404 139.555" stroke="black" stroke-width="4.52" stroke-miterlimit="10"/>
<path d="M328.524 133.461C331.172 129.712 330.206 124.475 326.366 121.762C322.527 119.049 317.267 119.889 314.619 123.638C311.971 127.386 312.937 132.624 316.776 135.336C320.616 138.049 325.875 137.209 328.524 133.461Z" stroke="black" stroke-width="4.52" stroke-miterlimit="10"/>
<path d="M307.198 134.534C309.846 130.785 308.881 125.547 305.041 122.835C301.202 120.122 295.942 120.962 293.294 124.711C290.646 128.459 291.612 133.697 295.451 136.409C299.291 139.122 304.55 138.282 307.198 134.534Z" stroke="black" stroke-width="4.52" stroke-miterlimit="10"/>
<path d="M300.095 123.833C301.612 123.828 303.073 124.398 304.188 125.426C305.302 126.456 305.985 127.868 306.101 129.38C306.162 130.131 306.07 130.887 305.832 131.602C305.594 132.316 305.214 132.976 304.714 133.541C304.209 134.113 303.594 134.577 302.905 134.905C302.217 135.234 301.469 135.419 300.707 135.452H300.401C298.883 135.456 297.421 134.886 296.306 133.856C295.193 132.825 294.509 131.412 294.395 129.899C294.335 129.147 294.428 128.391 294.667 127.677C294.906 126.962 295.288 126.302 295.787 125.738C296.292 125.168 296.906 124.705 297.594 124.376C298.282 124.048 299.028 123.861 299.789 123.827H300.095V123.833ZM300.095 122.593H299.729C298.809 122.634 297.906 122.86 297.075 123.257C296.243 123.654 295.5 124.213 294.888 124.903C294.277 125.592 293.811 126.398 293.517 127.271C293.223 128.144 293.107 129.067 293.177 129.986C293.325 131.806 294.151 133.505 295.492 134.744C296.833 135.984 298.591 136.675 300.417 136.68H300.783C301.704 136.639 302.606 136.413 303.438 136.016C304.269 135.62 305.012 135.06 305.624 134.37C306.235 133.681 306.701 132.876 306.995 132.002C307.289 131.129 307.405 130.206 307.335 129.287C307.187 127.467 306.361 125.769 305.02 124.529C303.679 123.289 301.921 122.598 300.095 122.593Z" fill="white"/>
<path d="M313.15 128.996L308.673 129.225" stroke="black" stroke-width="4.52" stroke-miterlimit="10"/>
<path opacity="0.53" d="M327.458 132.708C329.701 129.533 328.883 125.098 325.632 122.801C322.381 120.505 317.928 121.216 315.685 124.391C313.442 127.566 314.259 132.001 317.51 134.298C320.762 136.594 325.215 135.883 327.458 132.708Z" fill="white"/>
<path opacity="0.53" d="M306.133 133.781C308.376 130.606 307.558 126.171 304.307 123.874C301.057 121.577 296.603 122.289 294.36 125.464C292.117 128.639 292.934 133.074 296.186 135.37C299.437 137.667 303.89 136.955 306.133 133.781Z" fill="white"/>
<path d="M317.256 154.801L327.199 178.421C327.199 178.421 346.38 183.58 351.042 165.431" stroke="black" stroke-width="4.52" stroke-miterlimit="10"/>
<path d="M128.607 277.218C136.116 274.85 140.047 266.09 137.386 257.652C134.726 249.214 126.482 244.293 118.973 246.661C111.464 249.029 107.533 257.788 110.194 266.226C112.854 274.664 121.098 279.585 128.607 277.218Z" fill="#EDBC91"/>
<path d="M314.602 325.059C314.389 305.835 310.999 286.839 309.437 279.086" stroke="black" stroke-width="4.52" stroke-miterlimit="10"/>
</svg>
