<svg width="28" height="22" viewBox="0 0 28 22" fill="none" xmlns="http://www.w3.org/2000/svg">
<path d="M28 4.8606V17.875C28.0001 18.9271 27.5907 19.9396 26.8558 20.7051C26.1209 21.4706 25.1159 21.9314 24.0464 21.9931L23.8 22H4.2C3.1287 22 2.09788 21.598 1.31843 20.8762C0.53899 20.1544 0.0698495 19.1673 0.00700016 18.117L0 17.875V4.8606L13.223 13.519L13.3854 13.6097C13.5768 13.7016 13.787 13.7493 14 13.7493C14.213 13.7493 14.4232 13.7016 14.6146 13.6097L14.777 13.519L28 4.8606Z" fill="black"/>
<path d="M23.7996 0C25.3116 0 26.6374 0.78375 27.3766 1.96213L13.9996 10.7209L0.622559 1.96213C0.973668 1.40226 1.45597 0.932938 2.02924 0.593298C2.60251 0.253658 3.25015 0.0535387 3.91816 0.00962496L4.19956 0H23.7996Z" fill="black"/>
</svg>
